<!-- icon666.com - MILLIONS vector ICONS FREE --><svg id="Capa_1" enable-background="new 0 0 512 512" viewBox="0 0 512 512" xmlns="http://www.w3.org/2000/svg" xmlns:xlink="http://www.w3.org/1999/xlink"><linearGradient id="lg1"><stop offset="0" stop-color="#0d47a1"></stop><stop offset="1" stop-color="#0d47a1" stop-opacity="0"></stop></linearGradient><linearGradient id="SVGID_1_" gradientTransform="matrix(3.368 0 0 -3.368 116.053 2060.579)" gradientUnits="userSpaceOnUse" x1="48.437" x2="48.987" xlink:href="#lg1" y1="562.195" y2="561.645"></linearGradient><linearGradient id="SVGID_2_" gradientTransform="matrix(3.368 0 0 -3.368 116.053 2060.579)" gradientUnits="userSpaceOnUse" x1="25.732" x2="31.282" xlink:href="#lg1" y1="560.219" y2="554.669"></linearGradient><linearGradient id="SVGID_3_" gradientTransform="matrix(3.368 0 0 -3.368 116.053 2060.579)" gradientUnits="userSpaceOnUse" x1="10.297" x2="30.165" xlink:href="#lg1" y1="557.445" y2="537.577"></linearGradient><linearGradient id="SVGID_4_" gradientTransform="matrix(3.368 0 0 -3.368 116.053 2060.579)" gradientUnits="userSpaceOnUse" x1="48.357" x2="48.427" xlink:href="#lg1" y1="562.244" y2="562.184"></linearGradient><linearGradient id="SVGID_5_" gradientTransform="matrix(3.368 0 0 -3.368 116.053 2060.579)" gradientUnits="userSpaceOnUse" x1="43.355" x2="58.207" xlink:href="#lg1" y1="556.013" y2="541.161"></linearGradient><linearGradient id="SVGID_6_" gradientTransform="matrix(3.368 0 0 -3.368 116.053 2060.579)" gradientUnits="userSpaceOnUse" x1="46.029" x2="102.992" xlink:href="#lg1" y1="546.672" y2="489.709"></linearGradient><g><g id="Layer_2_1_"><g id="Color_1_"><path id="_47.VK_1_" d="m256 0c-141.385 0-256 114.615-256 256s114.615 256 256 256 256-114.615 256-256-114.615-256-256-256zm150.232 349.541-44.16.606s-9.499 1.886-21.962-6.737c-16.539-11.352-32.101-40.825-44.227-37.053s-11.924 30.316-11.924 30.316c.039 3.113-.917 6.158-2.728 8.691-2.549 2.184-5.693 3.556-9.027 3.941h-19.571s-43.789 2.594-82.021-37.356c-42.038-43.385-79.057-130.055-79.057-130.055s-2.18-5.027.202-8.421c2.059-2.934 7.137-3.249 9.701-3.368 11.053-.517 44.261-.303 44.261-.303 2.778-.069 4.645.077 8.084 1.583 2.956 1.461 5.198 3.637 6.636 7.141 5.109 12.722 11.039 25.099 17.752 37.053 19.739 34.122 28.935 41.566 35.638 37.928 9.735-5.322 6.737-48.202 6.737-48.202s0-15.596-4.918-22.501c-3.702-4.325-8.923-7.062-14.585-7.646-2.661-.371 1.718-6.535 7.377-9.297 8.488-4.177 23.512-4.177 41.229-4.177 7.902.151 15.221.745 23.175 2.358 16.303 3.941 10.779 19.099 10.779 55.545 0 11.655-2.122 28.093 6.299 33.684 3.638 2.324 12.463.337 34.627-37.255 7.071-12.44 13.207-25.387 18.358-38.737.992-2.122 2.497-3.962 4.379-5.356 1.99-.991 3.912-.923 6.434-1.112 0 0 37.311.413 49.718-.337 6.573-.397 14.922-1.785 17.347 4.985 2.425 6.771-5.592 23.579-25.903 50.526-33.347 44.463-37.053 40.421-9.364 65.987 26.442 24.556 31.933 36.514 32.842 37.996 10.979 18.125-12.128 19.573-12.128 19.573z" fill="#4c75a3"></path></g></g><path clip-rule="evenodd" d="m281.027 168.758-1.853-1.853c.707.522 1.332 1.146 1.853 1.853z" fill="url(#SVGID_1_)" fill-rule="evenodd"></path><path d="m219.558 194.086-18.695-18.796c5.657.496 10.911 3.135 14.686 7.377 2.16 3.465 3.529 7.364 4.009 11.419z" fill="url(#SVGID_2_)"></path><path d="m178.189 215.579c-6.712-11.954-12.642-24.331-17.752-37.053-.564-1.207-1.092-2.389-1.937-3.419l61.625 61.794c-.943 7.815-2.829 14.518-6.299 16.438-6.702 3.638-15.898-3.806-35.637-37.76z" fill="url(#SVGID_3_)"></path><path d="m279.175 166.905s0 0-.236-.202z" fill="url(#SVGID_4_)"></path><path d="m281.027 168.758 44.867 44.867-1.314 2.223c-22.164 37.592-30.989 39.579-34.627 37.255-8.421-5.423-6.299-21.861-6.299-33.684.001-27.79 3.268-43.251-2.627-50.661z" fill="url(#SVGID_5_)"></path><path d="m511.765 266.208c-4.018 100.617-66.648 189.532-160.034 227.2l-177.368-177.518c37.423 35.941 78.068 33.753 78.068 33.753h19.739c3.335-.385 6.478-1.757 9.027-3.941 1.86-2.597 2.819-5.733 2.728-8.926 0 0-.404-26.509 11.924-30.316s27.688 25.6 44.227 37.053c12.463 8.589 21.995 6.634 21.995 6.634l44.127-.503s23.107-1.448 12.16-19.604c-.909-1.482-6.4-13.474-32.842-37.996-27.688-25.701-23.983-21.524 9.364-65.987 20.211-26.947 28.429-43.587 25.903-50.526z" fill="url(#SVGID_6_)"></path></g></svg>